<?xml version="1.0" standalone="no"?>
<!DOCTYPE svg PUBLIC "-//W3C//DTD SVG 20010904//EN"
 "http://www.w3.org/TR/2001/REC-SVG-20010904/DTD/svg10.dtd">
<svg version="1.0" xmlns="http://www.w3.org/2000/svg"
 width="1320.000000pt" height="1000.000000pt" viewBox="0 0 1320.000000 1000.000000"
 preserveAspectRatio="xMidYMid meet">

<g transform="translate(0.000000,1000.000000) scale(0.100000,-0.100000)"
fill="#000000" stroke="none">
<path d="M0 5000 l0 -5000 6600 0 6600 0 0 5000 0 5000 -6600 0 -6600 0 0
-5000z m6783 3485 c136 -18 250 -49 375 -104 474 -205 802 -672 829 -1178 l6
-103 -61 0 -61 0 -5 58 c-24 229 -60 363 -143 523 -92 178 -212 319 -378 445
-119 90 -322 182 -478 216 -133 30 -387 32 -515 5 -296 -63 -572 -235 -750
-469 -40 -52 -72 -98 -71 -104 0 -5 556 -427 1235 -937 l1234 -929 0 -401 c0
-434 -9 -581 -42 -722 -107 -457 -470 -858 -903 -998 -312 -101 -589 -103
-893 -6 -390 125 -719 442 -872 841 -41 108 -72 260 -84 416 l-6 72 64 0 64 0
7 -77 c28 -341 161 -622 402 -855 111 -107 288 -213 448 -269 146 -50 235 -64
415 -64 233 0 355 28 560 128 399 195 660 582 704 1045 l5 52 -1327 996 c-730
549 -1331 1000 -1335 1004 -13 11 11 254 34 350 56 235 180 468 338 633 323
338 751 491 1204 432z m-1653 -5870 l0 -695 -85 0 -85 0 0 695 0 695 85 0 85
0 0 -695z m4760 355 l0 -150 100 0 100 0 0 -70 0 -70 -100 0 -100 0 0 -260 c0
-288 5 -316 59 -344 17 -9 55 -16 86 -16 l55 0 0 -71 0 -72 -107 5 c-150 6
-199 32 -242 128 -19 42 -21 65 -21 338 l0 292 -95 0 -96 0 3 68 3 67 67 5
c57 4 72 9 95 32 26 26 28 34 31 135 2 60 5 114 7 121 3 8 28 12 80 12 l75 0
0 -150z m-2318 -151 c54 -14 118 -67 146 -120 35 -70 43 -156 40 -479 l-3
-295 -87 -3 -88 -3 0 318 c0 311 -1 320 -22 363 -29 56 -64 81 -122 87 -90 11
-173 -42 -196 -125 -6 -22 -10 -162 -10 -339 l0 -303 -89 0 -90 0 -3 328 c-3
326 -3 327 -27 366 -66 106 -237 96 -299 -17 -15 -28 -18 -72 -22 -352 l-5
-320 -87 -3 -88 -3 0 451 0 451 88 -3 87 -3 5 -48 5 -49 30 32 c50 53 100 73
196 78 106 5 168 -18 230 -85 l41 -45 29 35 c74 89 200 121 341 86z m-1542
-26 c169 -82 251 -221 252 -423 0 -110 -22 -191 -72 -269 -87 -137 -216 -196
-409 -189 -95 3 -113 7 -176 36 -162 76 -255 231 -255 427 0 72 22 171 51 227
28 55 103 134 159 166 89 53 134 63 265 59 110 -3 125 -6 185 -34z m2482 17
c88 -27 149 -82 179 -158 20 -52 22 -79 27 -312 5 -281 5 -284 68 -296 l34 -6
0 -61 0 -60 -80 6 c-95 6 -137 27 -163 80 l-19 37 -46 -41 c-59 -52 -118 -78
-203 -88 -197 -25 -319 67 -319 239 0 85 21 132 81 184 55 46 128 73 264 97
155 28 187 39 203 71 30 64 -20 164 -95 189 -21 7 -66 10 -109 7 -60 -4 -80
-10 -109 -32 -38 -30 -65 -73 -65 -107 0 -17 -5 -20 -22 -16 -13 3 -49 11 -81
18 -58 12 -58 13 -51 43 16 77 87 162 162 193 90 37 246 44 344 13z m973 -65
l0 -80 -63 -7 c-84 -9 -143 -44 -179 -106 l-28 -47 -3 -292 -3 -293 -90 0 -89
0 0 450 0 450 85 0 85 0 0 -77 0 -77 23 31 c44 60 110 103 192 124 66 17 70
12 70 -76z m-5668 62 c-3 -7 -104 -176 -226 -376 -122 -199 -221 -364 -221
-366 0 -3 101 -5 225 -5 l225 0 0 -70 0 -70 -355 0 c-195 0 -355 2 -355 4 0 2
100 167 221 367 122 200 224 370 226 377 4 9 -42 12 -211 12 l-216 0 0 63 c0
35 3 67 7 70 3 4 159 7 346 7 276 0 338 -2 334 -13z m326 -109 c24 -68 80
-221 123 -341 43 -120 80 -215 82 -210 2 4 58 157 125 338 l122 330 93 3 92 3
-18 -44 c-9 -24 -127 -321 -262 -660 l-245 -617 -87 0 c-49 0 -88 3 -88 8 0 4
40 104 89 221 l89 215 -20 50 c-11 28 -89 223 -174 434 -85 210 -154 384 -154
387 0 3 42 5 94 5 l94 0 45 -122z"/>
<path d="M5418 7553 c-41 -111 -75 -258 -82 -351 l-4 -63 1263 -949 c695 -523
1267 -950 1270 -950 3 0 5 136 4 303 l0 302 -112 84 c-62 46 -601 452 -1199
902 -598 451 -1091 819 -1096 819 -4 0 -24 -44 -44 -97z"/>
<path d="M5735 2677 c-86 -33 -151 -104 -177 -191 -20 -66 -14 -192 11 -258
47 -121 149 -185 282 -176 114 9 197 73 240 188 27 72 23 211 -8 281 -49 109
-140 169 -253 168 -36 0 -79 -6 -95 -12z"/>
<path d="M8397 2314 c-87 -18 -169 -40 -182 -48 -77 -50 -76 -177 1 -206 91
-35 191 -14 259 55 34 34 49 59 65 113 12 39 20 81 18 95 l-3 24 -158 -33z"/>
</g>
</svg>
