<?xml version="1.0" standalone="no"?>
<!DOCTYPE svg PUBLIC "-//W3C//DTD SVG 20010904//EN"
 "http://www.w3.org/TR/2001/REC-SVG-20010904/DTD/svg10.dtd">
<svg version="1.0" xmlns="http://www.w3.org/2000/svg"
 width="1320.000000pt" height="1000.000000pt" viewBox="0 0 1320.000000 1000.000000"
 preserveAspectRatio="xMidYMid meet">

<g transform="translate(0.000000,1000.000000) scale(0.100000,-0.100000)"
fill="#000000" stroke="none">
<path d="M2755 5940 c-200 -31 -404 -141 -535 -287 -264 -296 -312 -719 -119
-1060 51 -89 245 -298 345 -369 81 -58 211 -119 309 -145 115 -31 336 -31 450
-1 283 76 525 298 620 570 30 87 55 224 55 306 0 172 -59 366 -153 506 -45 66
-253 276 -320 322 -83 57 -210 115 -302 138 -93 24 -263 33 -350 20z m365 -40
c83 -23 216 -85 269 -124 45 -33 38 -33 -45 5 -209 95 -475 106 -683 29 -166
-62 -320 -181 -425 -327 -46 -65 -119 -219 -141 -298 -10 -35 -19 -116 -22
-195 -6 -160 14 -271 71 -397 27 -58 30 -71 15 -53 -35 41 -97 174 -126 267
-23 78 -26 105 -26 233 -1 119 3 159 21 225 79 288 288 514 563 611 41 15 106
32 144 40 98 19 288 11 385 -16z m55 -185 c99 -27 220 -90 270 -143 169 -174
248 -439 201 -672 -34 -165 -92 -275 -211 -396 -95 -96 -188 -154 -317 -197
-84 -27 -106 -30 -223 -31 -145 -1 -212 13 -328 66 -186 86 -291 210 -349 414
-34 119 -31 296 6 419 84 278 309 483 596 546 100 22 258 19 355 -6z m474
-370 c69 -120 93 -211 99 -360 5 -154 -14 -251 -74 -373 -181 -370 -649 -537
-1022 -366 -71 32 -208 122 -199 130 2 2 29 -10 60 -26 285 -155 625 -122 877
85 205 169 316 447 281 706 -12 97 -53 221 -93 284 -40 66 -41 72 -4 30 19
-22 53 -71 75 -110z"/>
<path d="M6170 5155 l0 -595 120 0 120 0 0 595 0 595 -120 0 -120 0 0 -595z"/>
<path d="M10810 5550 l0 -130 -75 0 -76 0 3 -77 3 -78 73 -3 72 -3 0 -282 c0
-273 1 -284 23 -327 17 -35 34 -51 72 -70 44 -22 65 -25 183 -28 l132 -4 0 94
0 93 -64 0 c-49 0 -69 4 -85 19 -20 18 -21 28 -21 263 l0 243 85 0 85 0 0 80
0 80 -85 0 -85 0 0 130 0 130 -120 0 -120 0 0 -130z"/>
<path d="M6859 5422 c-109 -36 -191 -110 -242 -219 -56 -121 -59 -279 -7 -416
26 -70 108 -162 177 -199 76 -42 198 -62 295 -50 258 33 412 244 378 518 -22
171 -100 283 -247 351 -51 25 -72 28 -178 30 -95 2 -132 -1 -176 -15z m252
-177 c40 -21 87 -80 101 -127 7 -24 12 -86 12 -138 0 -142 -40 -222 -130 -256
-49 -19 -127 -13 -176 12 -74 38 -114 148 -105 289 10 165 96 254 227 239 25
-3 57 -12 71 -19z"/>
<path d="M8019 5431 c-43 -14 -71 -32 -121 -79 l-48 -45 0 57 0 56 -110 0
-110 0 0 -430 0 -430 114 0 114 0 4 283 c3 269 4 284 25 324 45 83 126 113
206 74 70 -34 71 -37 75 -378 l4 -303 119 0 119 0 0 279 c0 181 4 290 11 312
48 141 247 143 280 3 4 -22 9 -164 9 -316 l0 -278 121 0 120 0 -3 333 c-5 378
-8 398 -84 473 -57 58 -126 78 -243 72 -101 -5 -149 -26 -210 -90 -23 -23 -42
-40 -44 -37 -73 103 -108 122 -232 126 -49 1 -102 -1 -116 -6z"/>
<path d="M9377 5429 c-49 -11 -126 -51 -167 -86 -37 -31 -80 -114 -80 -156 l0
-28 117 3 117 3 8 31 c4 16 19 41 34 55 23 22 34 24 121 24 92 0 95 -1 119
-29 34 -39 31 -110 -6 -138 -26 -19 -112 -38 -259 -57 -201 -26 -290 -116
-279 -281 8 -109 54 -170 163 -216 28 -12 68 -17 130 -17 101 0 165 16 239 63
55 35 56 36 56 11 0 -49 5 -51 131 -51 l119 0 -12 28 c-8 18 -14 137 -18 359
l-5 331 -30 44 c-36 50 -95 86 -174 105 -62 14 -266 16 -324 2z m293 -531 c0
-80 -24 -145 -64 -171 -67 -44 -184 -44 -236 0 -26 21 -30 32 -30 73 0 84 48
118 196 140 40 5 82 14 95 19 13 5 27 10 32 10 4 1 7 -31 7 -71z"/>
<path d="M10499 5426 c-64 -23 -131 -81 -162 -141 -16 -30 -16 -29 -17 53 l0
82 -115 0 -115 0 0 -430 0 -430 119 0 119 0 4 248 c3 210 6 253 21 287 40 90
110 129 225 127 l72 -1 0 109 0 110 -57 0 c-32 -1 -74 -7 -94 -14z"/>
<path d="M4410 5330 l0 -90 205 -2 206 -3 -221 -249 -220 -249 0 -89 0 -88
395 0 395 0 0 85 0 85 -235 0 c-129 0 -235 4 -235 8 0 4 99 119 220 256 l220
249 0 88 0 89 -365 0 -365 0 0 -90z"/>
<path d="M5205 5403 c3 -10 74 -196 156 -414 166 -440 170 -459 119 -511 -30
-29 -32 -30 -115 -27 l-85 4 0 -97 0 -96 74 -7 c164 -16 278 26 337 121 19 31
389 1015 389 1035 0 5 -52 9 -119 9 l-120 0 -66 -207 c-36 -115 -78 -245 -93
-290 -14 -46 -29 -83 -32 -83 -3 0 -48 129 -101 288 l-96 287 -127 3 c-120 2
-128 1 -121 -15z"/>
</g>
</svg>
